<?xml version="1.0" encoding="UTF-8" standalone="no"?>
<svg
   xmlns:dc="http://purl.org/dc/elements/1.1/"
   xmlns:cc="http://creativecommons.org/ns#"
   xmlns:rdf="http://www.w3.org/1999/02/22-rdf-syntax-ns#"
   xmlns:svg="http://www.w3.org/2000/svg"
   xmlns="http://www.w3.org/2000/svg"
   xmlns:sodipodi="http://sodipodi.sourceforge.net/DTD/sodipodi-0.dtd"
   xmlns:inkscape="http://www.inkscape.org/namespaces/inkscape"
   width="210mm"
   height="297mm"
   viewBox="0 0 210 297"
   version="1.1"
   id="svg8"
   inkscape:version="1.0 (4035a4fb49, 2020-05-01)"
   sodipodi:docname="logo.svg">
  <defs
     id="defs2">
    <inkscape:path-effect
       update_on_knot_move="true"
       attempt_force_join="true"
       miter_limit="4"
       offset="4.2"
       unit="mm"
       linejoin_type="miter"
       lpeversion="1"
       is_visible="true"
       id="path-effect933"
       effect="offset" />
    <inkscape:path-effect
       effect="offset"
       id="path-effect854"
       is_visible="true"
       lpeversion="1"
       linejoin_type="miter"
       unit="mm"
       offset="4.2"
       miter_limit="4"
       attempt_force_join="true"
       update_on_knot_move="true" />
  </defs>
  <sodipodi:namedview
     id="base"
     pagecolor="#ffffff"
     bordercolor="#666666"
     borderopacity="1.0"
     inkscape:pageopacity="0.0"
     inkscape:pageshadow="2"
     inkscape:zoom="0.70710678"
     inkscape:cx="-68.594821"
     inkscape:cy="549.04295"
     inkscape:document-units="mm"
     inkscape:current-layer="layer1"
     inkscape:document-rotation="0"
     showgrid="false"
     inkscape:object-nodes="false"
     inkscape:snap-intersection-paths="false"
     inkscape:snap-nodes="false"
     inkscape:window-width="1920"
     inkscape:window-height="1009"
     inkscape:window-x="0"
     inkscape:window-y="31"
     inkscape:window-maximized="1" />
  <metadata
     id="metadata5">
    <rdf:RDF>
      <cc:Work
         rdf:about="">
        <dc:format>image/svg+xml</dc:format>
        <dc:type
           rdf:resource="http://purl.org/dc/dcmitype/StillImage" />
        <dc:title></dc:title>
      </cc:Work>
    </rdf:RDF>
  </metadata>
  <g
     inkscape:label="Layer 1"
     inkscape:groupmode="layer"
     id="layer1">
    <ellipse
       style="fill:#ff8963;fill-opacity:1;stroke-width:0.232124"
       id="path12"
       cx="111.49924"
       cy="148.5"
       rx="79.081787"
       ry="78.617188" />
    <circle
       cy="148.5"
       cx="105"
       id="circle837"
       style="opacity:1;fill:none;fill-opacity:1;stroke:#1a202c;stroke-width:9.09903;stroke-miterlimit:4;stroke-dasharray:none;stroke-opacity:1"
       rx="68.349319"
       ry="67.947769" />
    <path
       id="ellipse870"
       style="opacity:0.999;fill:none;fill-opacity:1;stroke:#1a202c;stroke-width:12.4131;stroke-miterlimit:4;stroke-dasharray:none;stroke-opacity:1"
       d="M 179.51817,148.5 A 68.018936,67.619331 0 0 1 111.49924,216.11933 68.018936,67.619331 0 0 1 43.480301,148.5 68.018936,67.619331 0 0 1 111.49924,80.880669 68.018936,67.619331 0 0 1 179.51817,148.5" />
    <g
       style="font-style:normal;font-variant:normal;font-weight:normal;font-stretch:normal;font-size:180.922px;line-height:1.25;font-family:'Droid Arabic Kufi';-inkscape-font-specification:'Droid Arabic Kufi, Normal';font-variant-ligatures:normal;font-variant-caps:normal;font-variant-numeric:normal;font-variant-east-asian:normal;fill:#1a202c;fill-opacity:1;stroke:none;stroke-width:4.52298"
       id="g996"
       transform="matrix(1.068477,0,0,0.93591159,-238.47516,-16.527064)"
       aria-label="SJ" />
    <g
       style="font-style:normal;font-variant:normal;font-weight:normal;font-stretch:normal;font-size:180.922px;line-height:1.25;font-family:'Droid Arabic Kufi';-inkscape-font-specification:'Droid Arabic Kufi, Normal';font-variant-ligatures:normal;font-variant-caps:normal;font-variant-numeric:normal;font-variant-east-asian:normal;fill:#ff8963;fill-opacity:1;stroke:#ff8963;stroke-width:12.72299995;stroke-opacity:1;stroke-miterlimit:4;stroke-dasharray:none"
       id="g1006"
       transform="scale(1.068477,0.93591159)"
       aria-label="SJ">
      <path
         id="path1002"
         style="font-style:normal;font-variant:normal;font-weight:normal;font-stretch:normal;font-size:180.922px;font-family:'Droid Arabic Kufi';-inkscape-font-specification:'Droid Arabic Kufi, Normal';font-variant-ligatures:normal;font-variant-caps:normal;font-variant-numeric:normal;font-variant-east-asian:normal;stroke-width:12.72299995;fill:#ff8963;fill-opacity:1;stroke:#ff8963;stroke-opacity:1;stroke-miterlimit:4;stroke-dasharray:none"
         d="m 100.22565,94.21726 v 17.40314 q -10.159198,-4.85874 -19.169961,-7.24395 -9.010764,-2.3852 -17.403142,-2.3852 -14.576235,0 -22.526909,5.65381 -7.862332,5.65382 -7.862332,16.07803 0,8.74574 5.212108,13.25113 5.300449,4.41704 19.965025,7.1556 l 10.77758,2.20852 q 19.965025,3.79866 29.417493,13.42781 9.540808,9.54081 9.540808,25.61884 0,19.16995 -12.89776,29.06412 -12.809418,9.89418 -37.633188,9.89418 -9.364127,0 -19.965026,-2.12018 -10.512557,-2.12018 -21.820182,-6.2722 v -18.37489 q 10.865921,6.09551 21.290138,9.18744 10.424216,3.09193 20.49507,3.09193 15.282961,0 23.586998,-6.00717 8.304037,-6.00718 8.304037,-17.13812 0,-9.71749 -6.007176,-15.19462 -5.918834,-5.47713 -19.52332,-8.2157 L 53.13999,161.1796 q -19.965025,-3.97534 -28.887448,-12.45605 -8.922423,-8.48072 -8.922423,-23.587 0,-17.49149 12.279374,-27.562339 12.367715,-10.070853 34.011215,-10.070853 9.275786,0 18.904936,1.678475 9.629149,1.678476 19.700006,5.035427 z" />
      <path
         id="path1004"
         style="font-style:normal;font-variant:normal;font-weight:normal;font-stretch:normal;font-size:180.922px;font-family:'Droid Arabic Kufi';-inkscape-font-specification:'Droid Arabic Kufi, Normal';font-variant-ligatures:normal;font-variant-caps:normal;font-variant-numeric:normal;font-variant-east-asian:normal;stroke-width:12.72299995;fill:#ff8963;fill-opacity:1;stroke:#ff8963;stroke-opacity:1;stroke-miterlimit:4;stroke-dasharray:none"
         d="m 136.00368,89.88856 h 17.84484 v 122.7054 q 0,23.85202 -9.0991,34.6296 -9.01077,10.77758 -29.06413,10.77758 h -6.80224 V 242.9832 h 5.56547 q 11.83767,0 16.69641,-6.62556 4.85875,-6.62556 4.85875,-23.76368 z" />
    </g>
    <g
       style="font-style:normal;font-variant:normal;font-weight:normal;font-stretch:normal;font-size:180.922px;line-height:1.25;font-family:'Droid Arabic Kufi';-inkscape-font-specification:'Droid Arabic Kufi, Normal';font-variant-ligatures:normal;font-variant-caps:normal;font-variant-numeric:normal;font-variant-east-asian:normal;fill:#1a202c;fill-opacity:1;stroke:none;stroke-width:4.52298"
       id="g1019"
       transform="matrix(1.068477,0,0,0.93591159,1.3513073,-2.6202352)"
       aria-label="SJ">
      <path
         id="path1015"
         style="font-style:normal;font-variant:normal;font-weight:normal;font-stretch:normal;font-size:180.922px;font-family:'Droid Arabic Kufi';-inkscape-font-specification:'Droid Arabic Kufi, Normal';font-variant-ligatures:normal;font-variant-caps:normal;font-variant-numeric:normal;font-variant-east-asian:normal;fill:#1a202c;fill-opacity:1;stroke-width:4.52298"
         d="m 100.22565,94.21726 v 17.40314 q -10.159198,-4.85874 -19.169961,-7.24395 -9.010764,-2.3852 -17.403142,-2.3852 -14.576235,0 -22.526909,5.65381 -7.862332,5.65382 -7.862332,16.07803 0,8.74574 5.212108,13.25113 5.300449,4.41704 19.965025,7.1556 l 10.77758,2.20852 q 19.965025,3.79866 29.417493,13.42781 9.540808,9.54081 9.540808,25.61884 0,19.16995 -12.89776,29.06412 -12.809418,9.89418 -37.633188,9.89418 -9.364127,0 -19.965026,-2.12018 -10.512557,-2.12018 -21.820182,-6.2722 v -18.37489 q 10.865921,6.09551 21.290138,9.18744 10.424216,3.09193 20.49507,3.09193 15.282961,0 23.586998,-6.00717 8.304037,-6.00718 8.304037,-17.13812 0,-9.71749 -6.007176,-15.19462 -5.918834,-5.47713 -19.52332,-8.2157 L 53.13999,161.1796 q -19.965025,-3.97534 -28.887448,-12.45605 -8.922423,-8.48072 -8.922423,-23.587 0,-17.49149 12.279374,-27.562339 12.367715,-10.070853 34.011215,-10.070853 9.275786,0 18.904936,1.678475 9.629149,1.678476 19.700006,5.035427 z" />
      <path
         id="path1017"
         style="font-style:normal;font-variant:normal;font-weight:normal;font-stretch:normal;font-size:180.922px;font-family:'Droid Arabic Kufi';-inkscape-font-specification:'Droid Arabic Kufi, Normal';font-variant-ligatures:normal;font-variant-caps:normal;font-variant-numeric:normal;font-variant-east-asian:normal;fill:#1a202c;fill-opacity:1;stroke-width:4.52298"
         d="m 136.00368,89.88856 h 17.84484 v 122.7054 q 0,23.85202 -9.0991,34.6296 -9.01077,10.77758 -29.06413,10.77758 h -6.80224 V 242.9832 h 5.56547 q 11.83767,0 16.69641,-6.62556 4.85875,-6.62556 4.85875,-23.76368 z" />
    </g>
    <g
       aria-label="SJ"
       transform="matrix(1.068477,0,0,0.93591159,5.2924106,-0.81791959)"
       id="text841"
       style="font-style:normal;font-variant:normal;font-weight:normal;font-stretch:normal;font-size:180.922px;line-height:1.25;font-family:'Droid Arabic Kufi';-inkscape-font-specification:'Droid Arabic Kufi, Normal';font-variant-ligatures:normal;font-variant-caps:normal;font-variant-numeric:normal;font-variant-east-asian:normal;fill:#ffffff;fill-opacity:1;stroke:none;stroke-width:4.52298">
      <path
         d="m 100.22565,94.21726 v 17.40314 q -10.159198,-4.85874 -19.169961,-7.24395 -9.010764,-2.3852 -17.403142,-2.3852 -14.576235,0 -22.526909,5.65381 -7.862332,5.65382 -7.862332,16.07803 0,8.74574 5.212108,13.25113 5.300449,4.41704 19.965025,7.1556 l 10.77758,2.20852 q 19.965025,3.79866 29.417493,13.42781 9.540808,9.54081 9.540808,25.61884 0,19.16995 -12.89776,29.06412 -12.809418,9.89418 -37.633188,9.89418 -9.364127,0 -19.965026,-2.12018 -10.512557,-2.12018 -21.820182,-6.2722 v -18.37489 q 10.865921,6.09551 21.290138,9.18744 10.424216,3.09193 20.49507,3.09193 15.282961,0 23.586998,-6.00717 8.304037,-6.00718 8.304037,-17.13812 0,-9.71749 -6.007176,-15.19462 -5.918834,-5.47713 -19.52332,-8.2157 L 53.13999,161.1796 q -19.965025,-3.97534 -28.887448,-12.45605 -8.922423,-8.48072 -8.922423,-23.587 0,-17.49149 12.279374,-27.562339 12.367715,-10.070853 34.011215,-10.070853 9.275786,0 18.904936,1.678475 9.629149,1.678476 19.700006,5.035427 z"
         style="font-style:normal;font-variant:normal;font-weight:normal;font-stretch:normal;font-size:180.922px;font-family:'Droid Arabic Kufi';-inkscape-font-specification:'Droid Arabic Kufi, Normal';font-variant-ligatures:normal;font-variant-caps:normal;font-variant-numeric:normal;font-variant-east-asian:normal;fill:#ffffff;fill-opacity:1;stroke-width:4.52298"
         id="path843" />
      <path
         d="m 136.00368,89.88856 h 17.84484 v 122.7054 q 0,23.85202 -9.0991,34.6296 -9.01077,10.77758 -29.06413,10.77758 h -6.80224 V 242.9832 h 5.56547 q 11.83767,0 16.69641,-6.62556 4.85875,-6.62556 4.85875,-23.76368 z"
         style="font-style:normal;font-variant:normal;font-weight:normal;font-stretch:normal;font-size:180.922px;font-family:'Droid Arabic Kufi';-inkscape-font-specification:'Droid Arabic Kufi, Normal';font-variant-ligatures:normal;font-variant-caps:normal;font-variant-numeric:normal;font-variant-east-asian:normal;fill:#ffffff;fill-opacity:1;stroke-width:4.52298"
         id="path845" />
    </g>
    <path
       transform="scale(0.26458333)"
       id="path22"
       d="M 415.06622,896.45975 V 857.3415 h -6.99863 c -9.73973,0 -37.66948,-3.79217 -53.00787,-7.19714 -21.58049,-4.79068 -46.98589,-14.01281 -68.52891,-24.87589 L 265.99866,814.9151 236.23419,814.8999 C 178.01875,814.87034 129.49537,806.88472 62.573487,786.32018 L 38.88541,779.04102 v -58.43049 c 0,-32.13678 0.219094,-58.4305 0.486876,-58.4305 0.267781,0 13.473,6.26857 29.344931,13.93015 32.441953,15.66013 50.874483,23.13377 75.255693,30.5131 18.14541,5.49195 22.00393,6.13613 19.6858,3.28646 -3.17198,-3.8993 -17.28966,-33.72341 -22.16762,-46.82989 -9.70087,-26.06504 -17.75287,-65.94688 -17.75287,-87.93061 v -7.68995 L 112.07096,561.6086 C 71.336224,541.18167 47.238946,511.12642 39.690021,471.33174 37.146934,457.92567 36.792989,431.03152 38.981838,417.52108 48.848922,356.6176 101.36313,309.78205 176.77123,294.63164 c 31.02058,-6.23242 68.21993,-8.42864 101.68778,-6.00358 l 21.07761,1.52727 17.51539,-6.34909 c 32.12109,-11.64346 58.51474,-16.93885 92.35735,-18.52976 44.03987,-2.07027 95.00042,7.68359 133.79719,25.6088 l 10.85092,5.01344 h 46.46989 46.46988 v 35.72936 35.72936 l 7.26683,8.98094 c 33.11528,40.92665 55.81834,93.99099 62.71187,146.57783 2.46924,18.83645 2.8112,53.94089 0.69569,71.41866 -6.75977,55.84745 -27.69463,105.97529 -63.40623,151.82412 l -8.68237,11.14697 v 10.81045 c 0,20.01067 -4.46438,47.50485 -10.81383,66.59768 -16.06435,48.3056 -49.51996,78.86048 -100.86548,92.12006 -19.18619,4.95467 -38.31508,6.8467 -78.88597,7.80258 l -39.95153,0.94129 z m 111.27407,11.0155 c 34.82115,-5.17045 57.8252,-15.49384 76.94542,-34.53035 10.43796,-10.39225 13.17576,-14.18698 19.4305,-26.93153 4.00434,-8.15915 8.84956,-20.37528 10.76719,-27.14698 7.98943,-28.21292 7.85699,-23.59226 7.85699,-274.11471 V 314.28349 h -7.07107 c -6.59967,0 -7.07107,-0.2357 -7.07107,-3.53553 v -3.53553 H 590.4287 553.65915 l -0.0113,225.21351 c -0.007,138.98676 -0.54751,230.0866 -1.41131,237.94143 -3.27642,29.79345 -10.04022,47.49441 -22.65833,59.29717 -14.20228,13.28431 -34.92423,19.19168 -67.32107,19.19168 H 444.7647 v 27.57717 27.57716 h 7.07107 c 6.12825,0 7.07107,0.37713 7.07107,2.82843 0,2.72717 0.94281,2.82842 26.335,2.82842 16.49482,0 31.85143,-0.81911 41.09845,-2.19215 z M 415.06622,839.09738 c 0,-0.70044 13.52342,-1.55477 30.05204,-1.89851 26.82661,-0.55789 31.55984,-1.02667 44.10059,-4.3678 16.15971,-4.30527 20.58552,-7.55919 25.66781,-18.87142 4.02981,-8.96962 10.88181,-44.29939 8.59157,-44.29939 -0.3189,0 -4.03022,1.52592 -8.24737,3.39095 -12.76129,5.64364 -32.71421,11.88937 -48.11563,15.0613 -18.96216,3.90527 -53.08505,5.19596 -73.26934,2.77139 -8.16317,-0.98057 -15.47851,-1.76354 -16.25633,-1.73995 -0.77782,0.0236 -7.07879,2.40456 -14.00217,5.29101 -13.3709,5.57452 -44.24068,13.88887 -57.76917,15.55932 -4.47245,0.55224 -8.13173,1.48207 -8.13173,2.0663 0,2.04402 36.39172,15.57281 53.12127,19.74807 27.84672,6.94983 64.25846,11.07996 64.25846,7.28873 z m -98.28784,-52.26569 c 50.36037,-7.83223 81.93143,-21.77051 107.62316,-47.51444 10.8007,-10.82267 13.93054,-15.04933 19.45942,-26.27879 8.71959,-17.70994 12.18273,-31.8284 13.16899,-53.68686 2.17055,-48.10659 -15.42819,-84.01859 -53.59743,-109.3709 -13.42529,-8.91717 -42.81313,-22.74487 -62.12397,-29.23085 -18.15467,-6.09765 -35.3045,-9.96394 -78.27029,-17.64538 -58.83394,-10.51837 -76.0687,-14.92714 -86.55369,-22.141 -20.62513,-14.19046 -27.5769,-47.56384 -15.43305,-74.08949 5.16546,-11.28286 11.10681,-18.22111 22.38603,-26.1422 17.24252,-12.10894 39.73837,-18.7124 73.10155,-21.45829 44.54739,-3.6664 96.46694,5.41856 150.65527,26.36188 9.15009,3.53643 16.90403,6.42987 17.23099,6.42987 0.32696,0 0.42319,-14.13221 0.21385,-31.40492 l -0.3806,-31.40492 -6.27179,-1.81499 c -3.44948,-0.99825 -6.71245,-2.52802 -7.25105,-3.39949 -2.53505,-4.10181 -63.92357,-17.37219 -101.73557,-21.99222 -24.16338,-2.95238 -79.90662,-3.34604 -98.99495,-0.6991 -73.97329,10.25772 -121.829188,42.32744 -137.8333,92.36638 -6.487706,20.28466 -7.357781,49.25719 -2.137649,71.18126 3.095831,13.00221 13.206811,31.84899 22.562519,42.05638 24.87146,27.13554 77.44908,49.29404 144.9856,61.10324 66.10131,11.55826 85.29283,16.50078 98.74669,25.43096 19.54605,12.97392 29.18588,31.68691 29.22285,56.72782 0.0321,21.70858 -6.12981,36.456 -21.13592,50.58542 -14.76713,13.9044 -33.07509,22.13122 -60.87168,27.35315 -19.22062,3.61083 -70.92075,3.62459 -92.38687,0.0246 -34.39604,-5.76842 -70.32767,-16.72979 -103.184797,-31.47775 -9.375128,-4.20804 -17.584617,-7.65098 -18.243308,-7.65098 -0.658691,0 -1.026791,14.74354 -0.818001,32.76342 l 0.379618,32.76344 6.363961,2.09693 c 3.500178,1.15332 6.57202,2.62566 6.826314,3.27187 0.254294,0.64621 6.741122,3.11248 14.415175,5.4806 32.175658,9.92903 76.749468,19.45564 105.330628,22.51193 7.77817,0.83175 16.36952,1.77216 19.09188,2.08981 2.72236,0.31763 21.17785,0.37171 41.01219,0.12021 27.34532,-0.34678 40.50647,-1.14847 54.44723,-3.31659 z m 343.93451,-78.68972 c 27.0763,-43.11562 41.43868,-94.09204 41.43868,-147.07821 0,-55.39749 -15.02291,-106.04738 -45.29241,-152.70387 l -9.15481,-14.11094 -0.39386,53.70892 c -0.37574,51.23924 -0.24569,54.42424 2.82843,69.26527 2.7658,13.35255 3.21098,19.66342 3.14255,44.54773 -0.0669,24.32939 -0.5786,31.30124 -3.18198,43.35566 -2.89371,13.39871 -3.10014,18.00931 -3.0708,68.58935 l 0.0314,54.22508 2.82987,-3.53553 c 1.55643,-1.94455 6.42672,-9.2631 10.82289,-16.26346 z m -409.69545,11.1868 c 0,-0.45872 -3.23432,-4.43619 -7.18738,-8.83884 -23.85614,-26.56928 -43.62387,-67.83852 -51.09257,-106.66632 l -3.11236,-16.18028 -13.47631,-3.24884 c -7.41196,-1.78684 -18.20178,-4.7486 -23.97735,-6.58167 -5.77558,-1.83307 -10.82292,-3.01098 -11.21631,-2.61759 -1.03737,1.03737 2.1134,28.26658 4.74506,41.0073 5.71322,27.65945 16.33627,56.38427 29.80436,80.59124 11.63043,20.90406 10.86628,20.18885 23.18696,21.70167 11.97268,1.47011 52.3259,2.11275 52.3259,0.83333 z M 209.10577,466.94535 c 10.44531,-24.34586 28.00007,-49.3309 49.36551,-70.26012 l 13.32984,-13.05768 -5.08854,-0.97203 c -6.77231,-1.29367 -45.14881,1.75897 -56.65565,4.50664 -5.02739,1.20047 -10.35883,3.27206 -11.84765,4.60353 -7.62784,6.82172 -36.28729,56.04571 -36.28729,62.32518 0,4.07746 6.11151,11.6607 12.33882,15.31014 7.5259,4.41047 22.48685,10.17999 26.55205,10.2395 2.22732,0.0325 3.98977,-2.66543 8.29291,-12.69516 z M 523.96066,326.35449 v -26.11277 l -15.45358,-4.89343 c -50.83747,-16.09787 -104.98654,-17.86201 -156.54944,-5.10028 -6.90351,1.70861 -13.07699,3.59957 -13.71883,4.20212 -0.64184,0.60255 1.90375,1.53387 5.65686,2.0696 11.03897,1.57574 42.00075,8.82968 64.45303,15.1005 l 20.85965,5.82601 v 6.0029 6.0029 l 15.2028,1.6922 c 25.70709,2.86144 56.4387,10.86175 70.74903,18.41798 9.07375,4.79118 8.80048,5.5118 8.80048,-23.20773 z"
       style="fill:#cccccc;stroke-width:1.41421" />
  </g>
</svg>
