<?xml version="1.0" standalone="no"?>
<!DOCTYPE svg PUBLIC "-//W3C//DTD SVG 20010904//EN"
 "http://www.w3.org/TR/2001/REC-SVG-20010904/DTD/svg10.dtd">
<svg version="1.0" xmlns="http://www.w3.org/2000/svg"
 width="648.000000pt" height="648.000000pt" viewBox="0 0 648.000000 648.000000"
 preserveAspectRatio="xMidYMid meet">
<metadata>
Created by potrace 1.11, written by Peter Selinger 2001-2013
</metadata>
<g transform="translate(0.000000,648.000000) scale(0.100000,-0.100000)"
fill="#000000" stroke="none">
<path d="M3537 6384 c-1 -1 -49 -4 -107 -8 -58 -3 -114 -8 -125 -10 -11 -2
-47 -7 -80 -11 -32 -4 -66 -8 -75 -10 -253 -52 -446 -108 -590 -172 -52 -23
-61 -24 -165 -17 -224 16 -711 9 -819 -12 -10 -2 -42 -6 -70 -9 -28 -2 -62 -7
-76 -10 -14 -3 -36 -7 -50 -10 -57 -11 -77 -15 -159 -36 -582 -145 -1011 -509
-1144 -969 -45 -154 -56 -247 -52 -435 2 -82 6 -163 9 -180 4 -16 11 -52 16
-80 72 -355 314 -648 688 -832 l92 -45 1 -42 c2 -65 6 -131 13 -188 4 -29 9
-73 12 -98 3 -25 12 -79 21 -120 8 -41 17 -88 20 -105 27 -165 194 -596 290
-748 29 -46 28 -47 -124 -3 -185 54 -391 132 -558 211 -105 50 -422 203 -448
216 -16 9 -17 -20 -17 -549 l0 -559 88 -27 c48 -15 130 -41 182 -57 146 -46
445 -123 560 -145 14 -3 57 -11 95 -19 39 -8 86 -17 105 -20 19 -3 60 -10 90
-15 30 -5 78 -12 105 -15 28 -3 60 -8 73 -10 13 -2 51 -7 85 -10 34 -3 89 -8
122 -12 33 -3 191 -6 350 -7 282 -1 291 -2 326 -23 123 -77 491 -237 591 -257
13 -3 55 -14 93 -25 80 -23 247 -57 320 -66 28 -4 61 -8 75 -11 14 -2 75 -7
135 -10 61 -3 113 -9 118 -13 4 -4 7 -165 7 -358 0 -325 2 -351 18 -355 49
-12 718 2 822 17 14 2 42 6 64 9 99 14 126 19 215 42 446 115 755 366 907 737
13 34 29 71 34 82 17 38 62 206 76 285 3 14 7 31 9 37 2 7 7 43 11 80 3 38 8
70 9 73 3 5 13 144 19 267 2 40 9 60 27 80 13 15 29 32 34 38 46 52 137 180
201 282 232 373 361 747 412 1193 15 135 7 556 -13 658 -2 11 -7 42 -11 69 -3
26 -8 57 -11 68 -2 11 -8 41 -13 66 -50 250 -178 583 -315 813 -86 146 -210
321 -279 394 l-30 33 -1 332 0 332 -435 5 -435 5 -80 37 c-223 103 -456 174
-705 214 -52 8 -106 17 -118 19 -59 10 -425 26 -435 19z"/>
</g>
</svg>
